<?xml version="1.0" encoding="utf-8"?>
<!-- Generator: Adobe Illustrator 12.0.0, SVG Export Plug-In . SVG Version: 6.00 Build 51448)  -->
<!DOCTYPE svg PUBLIC "-//W3C//DTD SVG 1.1//EN" "http://www.w3.org/Graphics/SVG/1.1/DTD/svg11.dtd" [
	<!ENTITY ns_svg "http://www.w3.org/2000/svg">
	<!ENTITY ns_xlink "http://www.w3.org/1999/xlink">
]>
<svg  version="1.1" id="Layer_1" xmlns="&ns_svg;" xmlns:xlink="&ns_xlink;" width="100" height="125" viewBox="0 0 100 125"
	 overflow="visible" enable-background="new 0 0 100 125" xml:space="preserve">
<polygon fill="#F7B852" points="6.562,31.525 5.286,33.624 9.129,39.447 20.309,40.029 28.578,38.166 35.565,33.974 37.951,31.53 
	36.963,29.781 30.208,30.829 14.137,34.789 "/>
<g>
	<path fill="#FFC65F" d="M10.306,36c4.06,2.635,10.125,2.798,17.538,0.47c2.145-0.673,7.004-3.612,9.634-6.059
		c0.028-0.287,0.053-0.645,0.062-1.103c0.01-0.088,0.024-0.175,0.032-0.263c0.604-6.295-2.986-12.09-8.533-14.713l-0.462-2.304
		c0,0-0.337,0.101-0.832,0.235c-4.273,1.738-10.479,6.653-11.702,20.309l-3.265-1.41c0,0,1.927-10.015,6.623-14.672
		c1.458-1.445,3.177-2.627,4.896-3.537c-0.076,0.001-0.146-0.001-0.206-0.007C16.145,12.1,10.168,17.092,7.917,25.095l-1.356,6.431
		L6.537,31.7C6.899,32.521,7.956,34.475,10.306,36z"/>
	<path fill="#FFC65F" d="M18.366,39.27c-3.076,0-6.131-0.618-8.715-2.321c-2.122-1.399-3.275-3.095-3.848-4.182
		c-0.593,0.872-1.431,2.187-2.053,3.511c-1.069,2.275-0.973,3.537,0.405,4.237c9.722,4.941,12.975,5.848,18.334,3.128
		c0,0,9.327-4.774,14.962-9.629c0.43-0.371,1.224-2.117,0.5-2.485c-2.787,2.489-7.613,5.378-9.79,6.061
		C25.296,38.49,21.818,39.27,18.366,39.27z"/>
</g>
<path fill="#F7BB63" d="M16.042,32.572l-3.265-1.41c0,0,2.317-15.45,12.543-19.046l3.255-0.088
	C28.576,12.028,18.337,15.158,16.042,32.572z"/>
</svg>
